<svg width="204" height="56" viewBox="0 0 204 56" fill="none" xmlns="http://www.w3.org/2000/svg">
<g clip-path="url(#clip0_811_5396)">
<path d="M90.6177 14.5367V54.5067H78.9804L78.8645 51.6833C75.6191 54.3433 71.4927 55.86 66.8795 55.86C54.7323 55.86 46.0623 46.9467 46.0623 34.51C46.0623 22.0733 54.7323 13.3233 66.8795 13.3233C71.5623 13.3233 75.735 14.8867 79.0036 17.6167V14.5367H90.5945H90.6177ZM75.3873 34.5567C75.3873 29.3767 71.6318 25.48 66.5086 25.48C61.3854 25.48 57.63 29.3767 57.63 34.5567C57.63 39.7367 61.3854 43.68 66.5086 43.68C71.6318 43.68 75.3873 39.7833 75.3873 34.5567Z" fill="#389344"/>
<path d="M137.144 34.1834C137.144 35.3967 137.028 36.5867 136.865 37.8234H107.378C108.282 42.42 111.157 44.7767 115.492 44.7767C118.691 44.7767 121.357 43.3767 122.678 41.02H136.286C133.481 50.1434 125.46 55.8367 115.492 55.8367C103.09 55.8367 93.9095 46.7134 93.9095 34.51C93.9095 22.3067 103.02 13.2534 115.492 13.2534C127.964 13.2534 137.167 22.4467 137.167 34.16L137.144 34.1834ZM107.61 30.1934H123.675C122.47 26.2034 119.618 24.0334 115.492 24.0334C111.365 24.0334 108.723 26.2034 107.633 30.1934H107.61Z" fill="#389344"/>
<path d="M146.347 0.140015H148.201C151.4 0.140015 153.997 2.75335 153.997 5.97335C153.997 9.19335 151.4 11.8067 148.201 11.8067H146.347C143.148 11.8067 140.551 9.19335 140.551 5.97335C140.551 2.75335 143.148 0.140015 146.347 0.140015ZM140.435 15.89H154.113V55.86H140.435V15.89Z" fill="#389344"/>
<path d="M181.722 0.140015C176.993 0.140015 172.797 1.77335 169.529 4.62001V1.44668H158.517V55.86H172.032V40.1334C174.837 41.8367 178.129 42.7933 181.722 42.7933C193.87 42.7933 202.54 33.9033 202.54 21.4433C202.54 8.98335 193.87 0.140015 181.722 0.140015ZM193.615 29.0033C191.853 32.0833 188.352 33.39 185.802 31.92C184.435 31.1267 183.6 29.6567 183.438 28L182.51 22.54L181.583 28C181.398 29.6567 180.586 31.1033 179.219 31.8967C176.669 33.3667 173.191 32.06 171.406 28.98C169.645 25.9 170.27 22.19 172.797 20.72C174.165 19.9267 175.834 19.9267 177.341 20.6033L182.487 22.5167L178.245 18.9933C176.9 18.0133 176.066 16.5667 176.066 14.98C176.066 12.0167 178.94 9.63668 182.487 9.63668C186.034 9.63668 188.909 12.04 188.909 14.98C188.909 16.59 188.074 18.0133 186.73 18.9933L182.487 22.54L187.634 20.6267C189.14 19.95 190.81 19.95 192.177 20.7433C194.727 22.2133 195.353 25.9233 193.568 29.0033H193.615Z" fill="#389344"/>
<path d="M1.46045 37.4033H16.4823C16.4823 41.2067 19.4032 43.05 22.7182 43.05C25.755 43.05 28.6759 41.4167 28.6759 38.5233C28.6759 35.1867 24.5727 34.23 19.5423 32.9933C11.9154 31.08 2.1559 28.7233 2.1559 16.6367C2.13272 6.13668 9.78272 0.140015 22.2314 0.140015C34.68 0.140015 42.1445 6.67335 42.1445 17.5H27.5632C27.5632 14.14 25.0827 12.5533 22.0459 12.5533C19.4495 12.5533 16.9691 13.6733 16.9691 16.17C16.9691 19.18 20.9564 20.1833 25.9173 21.4433C33.6832 23.4733 43.86 26.0867 43.86 38.22C43.86 50.3533 35.0045 55.86 22.7414 55.86C9.8059 55.86 1.46045 48.9767 1.46045 37.4033Z" fill="#389344"/>
</g>
<defs>
<clipPath id="clip0_811_5396">
<rect width="204" height="56" fill="white"/>
</clipPath>
</defs>
</svg>
