<svg width="156" height="80" viewBox="0 0 156 80" fill="none" xmlns="http://www.w3.org/2000/svg">
<g id="Logo" clip-path="url(#clip0_49_540)">
<g id="&#235;&#160;&#136;&#236;&#157;&#180;&#236;&#150;&#180; 1">
<path id="Vector" d="M20.9317 0V63.989H33.6596V79.9981H0V0H20.9317Z" fill="#389344"/>
<path id="Vector_2" d="M58.8155 5.21231C58.8155 8.09095 56.4674 10.4246 53.5711 10.4246H43.3784C40.4821 10.4246 38.134 8.09095 38.134 5.21231C38.134 2.33367 40.4821 0 43.3784 0H53.5711C56.4674 0 58.8155 2.33367 58.8155 5.21231ZM58.8155 14.4293V80H38.134V14.4293H58.8155Z" fill="#389344"/>
<path id="Vector_3" d="M107.587 14.4293L98.1914 80H71.9408L61.8475 14.4293H79.7835L85.4367 62.3104C85.8799 58.7881 86.6346 50.2091 87.7007 36.5755C88.27 28.9649 88.9196 21.5822 89.6494 14.4293H107.585H107.587Z" fill="#389344"/>
<path id="Vector_4" d="M156 48.3331V39.9402C156 33.805 155.263 29.0447 153.788 25.659C152.313 22.2734 149.743 19.5562 146.081 17.5054C142.418 15.4547 137.77 14.4293 132.136 14.4293C127.527 14.4293 123.452 15.28 119.904 16.9813C116.359 18.6827 113.806 21.1303 112.249 24.3241C110.69 27.5199 109.912 31.8815 109.912 37.4128V55.8677C109.912 60.573 110.26 64.158 110.956 66.6208C111.651 69.0855 112.902 71.3413 114.71 73.3921C116.515 75.4428 119.043 77.0568 122.291 78.2322C125.539 79.4076 129.283 79.9962 133.526 79.9962C137.77 79.9962 141.539 79.4 144.439 78.2075C147.34 77.015 149.733 75.2263 151.623 72.8433C153.512 70.4583 154.714 68.2177 155.228 66.1195C155.742 64.0213 155.998 61.0173 155.998 57.1076V52.4346H136.956V60.78C136.956 63.9263 136.698 66.0492 136.186 67.1468C135.672 68.2443 134.652 68.7912 133.129 68.7912C131.903 68.7912 131.073 68.3791 130.644 67.5512C130.212 66.7252 129.998 64.8815 129.998 62.0199V48.335H156V48.3331ZM128.985 43.2385C126.018 44.9341 122.231 43.9183 120.525 40.9694C118.819 38.0205 119.841 34.257 122.808 32.5613C124.417 31.6423 126.265 31.5226 127.892 32.0714V32.0676L131.492 33.0322L128.836 30.3928L128.84 30.389C127.548 29.2611 126.733 27.6072 126.733 25.7635C126.733 22.3626 129.507 19.6055 132.929 19.6055C136.35 19.6055 139.124 22.3626 139.124 25.7635C139.124 27.6072 138.309 29.2592 137.017 30.389L137.021 30.3928L134.365 33.0322L137.963 32.0676V32.0714C139.592 31.5207 141.44 31.6423 143.049 32.5613C146.016 34.257 147.038 38.0205 145.332 40.9694C143.626 43.9183 139.839 44.9341 136.872 43.2385C135.263 42.3194 134.23 40.7928 133.888 39.118H133.884L132.927 35.5976L131.969 39.1199H131.966C131.626 40.7928 130.59 42.3213 128.981 43.2385H128.985Z" fill="#389344"/>
</g>
</g>
<defs>
<clipPath id="clip0_49_540">
<rect width="156" height="80" fill="white"/>
</clipPath>
</defs>
</svg>
