<svg width="180" height="82" viewBox="0 0 180 82" fill="none" xmlns="http://www.w3.org/2000/svg">
<g clip-path="url(#clip0_811_5362)">
<path d="M26.7862 0H50.5013V51.0564H53.0213C54.045 51.0564 55.2375 51.0222 56.5875 50.9425C57.9375 50.8742 59.1637 50.6806 60.2663 50.3844V66.9667C58.8037 67.4108 57.2962 67.6728 55.7663 67.7411C54.225 67.8208 52.9425 67.855 51.9188 67.855H50.49V82H31.8263V67.855H0V53.0494L26.7862 0ZM32.3888 25.0897L20.3062 51.0564H32.3888V25.0897Z" fill="#60A769"/>
<path d="M146.509 0H170.224V51.0564H172.744C173.768 51.0564 174.96 51.0222 176.31 50.9425C177.66 50.8742 178.886 50.6806 179.989 50.3844V66.9667C178.526 67.4108 177.019 67.6728 175.489 67.7411C173.948 67.8208 172.665 67.855 171.641 67.855H170.213V82H151.549V67.855H119.711V53.0494L146.509 0ZM152.111 25.0897L140.029 51.0564H152.111V25.0897Z" fill="#60A769"/>
<path d="M94.41 45.9314V5.11359C105.604 5.11359 114.683 12.6872 114.683 22.0375C114.683 27.1055 112.016 31.6497 107.786 34.7475L94.3988 45.9314H94.41Z" fill="#389344"/>
<path d="M94.41 45.9314V5.11359C83.2163 5.11359 74.1375 12.6872 74.1375 22.0375C74.1375 27.1055 76.8038 31.6497 81.0338 34.7475L94.4213 45.9314H94.41Z" fill="#33843D"/>
<path d="M94.41 45.9313L129.521 66.3402C123.919 76.1005 112.871 80.2233 104.828 75.5538C100.474 73.0255 97.8975 68.4244 97.335 63.1969L94.41 45.9427V45.9313Z" fill="#389344"/>
<path d="M94.41 45.9313L129.521 66.3402C135.124 56.58 133.144 44.8836 125.1 40.2027C120.746 37.6744 115.504 37.72 110.723 39.8497L94.41 45.92V45.9313Z" fill="#33843D"/>
<path d="M94.41 45.9313L59.2987 66.3402C53.6962 56.58 55.6762 44.8836 63.72 40.2027C68.0737 37.6744 73.3162 37.72 78.0975 39.8497L94.41 45.92V45.9313Z" fill="#389344"/>
<path d="M94.41 45.9313L59.2987 66.3402C64.9012 76.1005 75.9487 80.2233 83.9925 75.5538C88.3462 73.0255 90.9225 68.4244 91.485 63.1969L94.41 45.9427V45.9313Z" fill="#33843D"/>
</g>
<defs>
<clipPath id="clip0_811_5362">
<rect width="180" height="82" fill="white"/>
</clipPath>
</defs>
</svg>
