<svg width="52" height="52" viewBox="0 0 52 52" fill="none" xmlns="http://www.w3.org/2000/svg">
<g clip-path="url(#clip0_763_6007)">
<path d="M26 29.1253V1.59912C33.6024 1.59912 39.7644 6.70812 39.7644 13.0105C39.7644 16.4269 37.9548 19.4923 35.087 21.5827L35.0922 21.5879L26.0026 29.1253H26Z" fill="#389344"/>
<path d="M26 29.1253V1.59912C18.3976 1.59912 12.2356 6.70812 12.2356 13.0105C12.2356 16.4269 14.0452 19.4923 16.913 21.5827L16.9078 21.5879L25.9974 29.1253H26Z" fill="#33843D"/>
<path d="M26 29.125L49.8394 42.8894C46.0382 49.4726 38.532 52.2546 33.0746 49.1034C30.1158 47.3952 28.3686 44.296 27.989 40.7652H27.9812L25.9974 29.125H26Z" fill="#389344"/>
<path d="M26 29.1252L49.8394 42.8896C53.6406 36.3064 52.2964 28.4154 46.8364 25.2642C43.8776 23.556 40.3182 23.5924 37.0734 25.0302V25.0224L25.9974 29.1252H26Z" fill="#33843D"/>
<path d="M26 29.1252L2.16057 42.8896C-1.64063 36.3064 -0.296428 28.4154 5.16357 25.2642C8.12237 23.556 11.6818 23.5924 14.9266 25.0302V25.0224L26.0026 29.1252H26Z" fill="#389344"/>
<path d="M26 29.125L2.16058 42.8894C5.96178 49.4726 13.468 52.2546 18.9254 49.1034C21.8842 47.3952 23.6314 44.296 24.011 40.7652H24.0188L26.0026 29.125H26Z" fill="#33843D"/>
</g>
<defs>
<clipPath id="clip0_763_6007">
<rect width="52" height="52" fill="white"/>
</clipPath>
</defs>
</svg>
