<svg width="40" height="40" viewBox="0 0 40 40" fill="none" xmlns="http://www.w3.org/2000/svg">
<g clip-path="url(#clip0_2_355)">
<path d="M0.833374 20C0.833374 22.517 1.32913 25.0094 2.29235 27.3348C3.25556 29.6602 4.66737 31.7731 6.44716 33.5529C8.22695 35.3327 10.3399 36.7445 12.6653 37.7077C14.9907 38.6709 17.483 39.1667 20 39.1667C22.517 39.1667 25.0094 38.6709 27.3348 37.7077C29.6602 36.7445 31.7731 35.3327 33.5529 33.5529C35.3327 31.7731 36.7445 29.6602 37.7077 27.3348C38.6709 25.0094 39.1667 22.517 39.1667 20C39.1667 17.483 38.6709 14.9907 37.7077 12.6652C36.7445 10.3398 35.3327 8.22692 33.5529 6.44713C31.7731 4.66734 29.6602 3.25553 27.3348 2.29232C25.0094 1.3291 22.517 0.833344 20 0.833344C17.483 0.833344 14.9907 1.3291 12.6653 2.29232C10.3399 3.25553 8.22695 4.66734 6.44716 6.44713C4.66737 8.22692 3.25556 10.3398 2.29235 12.6652C1.32913 14.9907 0.833374 17.483 0.833374 20Z" fill="#FBFBFB"/>
<path d="M20 7.50001C24.1408 7.50032 28.1849 8.75091 31.6031 11.088C35.0212 13.4252 37.6539 16.7399 39.1567 20.5983C39.1567 20.3983 39.1667 20.2 39.1667 20C39.1667 14.9167 37.1474 10.0416 33.5529 6.44713C29.9585 2.85268 25.0834 0.833344 20 0.833344C14.9167 0.833344 10.0416 2.85268 6.44716 6.44713C2.85271 10.0416 0.833374 14.9167 0.833374 20C0.833374 20.2 0.833374 20.3983 0.843374 20.5983C2.34614 16.7399 4.97892 13.4252 8.39703 11.088C11.8151 8.75091 15.8593 7.50032 20 7.50001Z" fill="#F3F3F3"/>
<path d="M10.0583 15.1167C10.9706 13.7512 12.1429 12.5789 13.5083 11.6667" stroke="#CCCCCC" stroke-linecap="round" stroke-linejoin="round"/>
<path d="M30.8483 15.1167C29.9349 13.7522 28.7628 12.5801 27.3983 11.6667" stroke="#CCCCCC" stroke-linecap="round" stroke-linejoin="round"/>
<path d="M36.2667 30.8333C33.8181 34.4068 30.2312 37.0454 26.0907 38.319C21.9502 39.5926 17.5004 39.426 13.4668 37.8464C9.43315 36.2668 6.05355 33.3673 3.87899 29.6208C1.70442 25.8742 0.863157 21.5015 1.49234 17.2155C2.12152 12.9296 4.18404 8.98312 7.34364 6.01961C10.5032 3.05611 14.5736 1.25033 18.891 0.896674C23.2085 0.54302 27.5184 1.66235 31.1181 4.07218C34.7179 6.48201 37.3951 10.0402 38.7134 14.1667" stroke="#CCCCCC" stroke-linecap="round" stroke-linejoin="round"/>
<path d="M37.675 23.6117C37.6564 24.4098 37.3262 25.1689 36.7552 25.7268C36.1841 26.2846 35.4175 26.597 34.6192 26.597C33.8209 26.597 33.0542 26.2846 32.4832 25.7268C31.9121 25.1689 31.582 24.4098 31.5634 23.6117C31.5634 21.9233 34.62 17.5 34.62 17.5C34.62 17.5 37.675 21.9233 37.675 23.6117Z" fill="#FBFBFB" stroke="#CCCCCC" stroke-linecap="round" stroke-linejoin="round"/>
<path d="M12.9534 30C12.9534 29.0151 13.1474 28.0398 13.5243 27.1299C13.9012 26.2199 14.4536 25.3931 15.1501 24.6967C15.8465 24.0003 16.6733 23.4478 17.5832 23.0709C18.4932 22.694 19.4685 22.5 20.4534 22.5C21.4383 22.5 22.4136 22.694 23.3235 23.0709C24.2334 23.4478 25.0602 24.0003 25.7567 24.6967C26.4531 25.3931 27.0056 26.2199 27.3825 27.1299C27.7594 28.0398 27.9534 29.0151 27.9534 30" stroke="#CCCCCC" stroke-linecap="round" stroke-linejoin="round"/>
</g>
<defs>
<clipPath id="clip0_2_355">
<rect width="40" height="40" fill="white"/>
</clipPath>
</defs>
</svg>
