<svg width="41" height="40" viewBox="0 0 41 40" fill="none" xmlns="http://www.w3.org/2000/svg">
<g clip-path="url(#clip0_2_395)">
<path d="M34.6667 15.8333V12.5C34.6667 12.058 34.4911 11.634 34.1786 11.3215C33.866 11.0089 33.4421 10.8333 33 10.8333H3.00004C2.55801 10.8333 2.13409 11.0089 1.82153 11.3215C1.50897 11.634 1.33337 12.058 1.33337 12.5V27.5C1.33337 27.942 1.50897 28.3659 1.82153 28.6785C2.13409 28.9911 2.55801 29.1666 3.00004 29.1666H33C33.4421 29.1666 33.866 28.9911 34.1786 28.6785C34.4911 28.3659 34.6667 27.942 34.6667 27.5V24.1666H38C38.4421 24.1666 38.866 23.9911 39.1786 23.6785C39.4911 23.3659 39.6667 22.942 39.6667 22.5V17.5C39.6667 17.058 39.4911 16.634 39.1786 16.3215C38.866 16.0089 38.4421 15.8333 38 15.8333H34.6667Z" fill="#E1EFE3"/>
<path d="M5.49996 14.1667H23.8333C23.8333 14.1667 24.6666 14.1667 24.6666 15V25C24.6666 25 24.6666 25.8334 23.8333 25.8334H5.49996C5.49996 25.8334 4.66663 25.8334 4.66663 25V15C4.66663 15 4.66663 14.1667 5.49996 14.1667Z" fill="#C1DEC5"/>
<path d="M19.5316 14.1667H5.49996C5.27895 14.1667 5.06698 14.2545 4.9107 14.4108C4.75442 14.567 4.66663 14.779 4.66663 15V25C4.66663 25.221 4.75442 25.433 4.9107 25.5893C5.06698 25.7456 5.27895 25.8334 5.49996 25.8334H7.86496L19.5316 14.1667Z" fill="#E1EFE3"/>
<path d="M11.3333 25.8334H5.49996C5.27895 25.8334 5.06698 25.7456 4.9107 25.5893C4.75442 25.433 4.66663 25.221 4.66663 25V15C4.66663 14.779 4.75442 14.567 4.9107 14.4108C5.06698 14.2545 5.27895 14.1667 5.49996 14.1667H11.3333V25.8334Z" stroke="#389344" stroke-linecap="round" stroke-linejoin="round"/>
<path d="M11.3334 14.1667H18V25.8334H11.3334V14.1667Z" stroke="#389344" stroke-linecap="round" stroke-linejoin="round"/>
<path d="M24.6667 25C24.6667 25.221 24.5789 25.433 24.4226 25.5893C24.2663 25.7456 24.0543 25.8334 23.8333 25.8334H18V14.1667H23.8333C24.0543 14.1667 24.2663 14.2545 24.4226 14.4108C24.5789 14.567 24.6667 14.779 24.6667 15V25Z" stroke="#389344" stroke-linecap="round" stroke-linejoin="round"/>
<path d="M34.6667 15.8333V12.5C34.6667 12.058 34.4911 11.634 34.1786 11.3215C33.866 11.0089 33.4421 10.8333 33 10.8333H3.00004C2.55801 10.8333 2.13409 11.0089 1.82153 11.3215C1.50897 11.634 1.33337 12.058 1.33337 12.5V27.5C1.33337 27.942 1.50897 28.3659 1.82153 28.6785C2.13409 28.9911 2.55801 29.1666 3.00004 29.1666H33C33.4421 29.1666 33.866 28.9911 34.1786 28.6785C34.4911 28.3659 34.6667 27.942 34.6667 27.5V24.1666H38C38.4421 24.1666 38.866 23.9911 39.1786 23.6785C39.4911 23.3659 39.6667 22.942 39.6667 22.5V17.5C39.6667 17.058 39.4911 16.634 39.1786 16.3215C38.866 16.0089 38.4421 15.8333 38 15.8333H34.6667Z" stroke="#389344" stroke-linecap="round" stroke-linejoin="round"/>
</g>
<defs>
<clipPath id="clip0_2_395">
<rect width="40" height="40" fill="white" transform="translate(0.5)"/>
</clipPath>
</defs>
</svg>
