<svg width="40" height="40" viewBox="0 0 40 40" fill="none" xmlns="http://www.w3.org/2000/svg">
<g clip-path="url(#clip0_2_431)">
<path d="M19.9999 39.1667C19.8279 39.1665 19.6604 39.1116 19.5216 39.01C17.6283 37.6517 10.6066 32.3917 7.42161 26.875C3.66661 19.0217 7.04161 14.185 12.5966 13.4667C14.2174 13.3579 15.8279 13.796 17.1702 14.711C18.5124 15.626 19.5089 16.9649 19.9999 18.5134C20.491 16.9649 21.4875 15.626 22.8297 14.711C24.172 13.796 25.7825 13.3579 27.4033 13.4667C32.9583 14.185 36.3333 19.0217 32.5783 26.875C29.3933 32.3917 22.3716 37.6517 20.4783 39.01C20.3395 39.1116 20.172 39.1665 19.9999 39.1667Z" fill="#C1DEC5"/>
<path d="M27.4034 13.4667C25.7826 13.3579 24.1721 13.796 22.8298 14.711C21.4876 15.626 20.4911 16.9649 20.0001 18.5134C19.509 16.9649 18.5125 15.626 17.1703 14.711C15.828 13.796 14.2175 13.3579 12.5967 13.4667C7.65672 14.1067 4.45339 18.0084 6.44505 24.3867C10.426 27.1407 15.1595 28.5998 20.0001 28.565C24.8406 28.5998 29.5741 27.1407 33.5551 24.3867C35.5467 18.0084 32.3434 14.1067 27.4034 13.4667Z" fill="#E1EFE3"/>
<path d="M27.4033 13.4667C25.7825 13.3579 24.1721 13.796 22.8298 14.711C21.4875 15.626 20.4911 16.9649 20 18.5134C19.5089 16.9649 18.5125 15.626 17.1702 14.711C15.828 13.796 14.2175 13.3579 12.5967 13.4667" stroke="#389344" stroke-linecap="round" stroke-linejoin="round"/>
<path d="M4.99996 0.833313H13.3333C13.3333 0.833313 14.1666 0.833313 14.1666 1.66665V3.33331C14.1666 3.33331 14.1666 4.16665 13.3333 4.16665H4.99996C4.99996 4.16665 4.16663 4.16665 4.16663 3.33331V1.66665C4.16663 1.66665 4.16663 0.833313 4.99996 0.833313Z" fill="#C1DEC5" stroke="#389344" stroke-linecap="round" stroke-linejoin="round"/>
<path d="M35 4.16665H26.6667C26.6667 4.16665 25.8334 4.16665 25.8334 3.33331V1.66665C25.8334 1.66665 25.8334 0.833313 26.6667 0.833313H35C35 0.833313 35.8334 0.833313 35.8334 1.66665V3.33331C35.8334 3.33331 35.8334 4.16665 35 4.16665Z" fill="#C1DEC5" stroke="#389344" stroke-linecap="round" stroke-linejoin="round"/>
<path d="M8.33337 11.25L6.08004 15C5.82575 15.5088 5.76604 16.0929 5.91213 16.6426C6.05822 17.1923 6.40005 17.6696 6.87337 17.985C7.13609 18.1599 7.43153 18.2796 7.74184 18.337C8.05215 18.3943 8.37087 18.3882 8.67873 18.3188C8.98659 18.2495 9.27719 18.1185 9.53294 17.9336C9.7887 17.7487 10.0043 17.5139 10.1667 17.2434L12.0717 14.39C12.895 13.1577 13.3341 11.7087 13.3334 10.2267V4.16669H6.50004L2.47671 9.19502C1.41257 10.5253 0.833001 12.1782 0.833374 13.8817V22.5C0.833374 23.1631 1.09677 23.7989 1.56561 24.2678C2.03445 24.7366 2.67033 25 3.33337 25C3.99642 25 4.6323 24.7366 5.10114 24.2678C5.56998 23.7989 5.83337 23.1631 5.83337 22.5V16.0417" fill="#E1EFE3"/>
<path d="M8.33337 11.25L6.08004 15C5.82575 15.5088 5.76604 16.0929 5.91213 16.6426C6.05822 17.1923 6.40005 17.6696 6.87337 17.985C7.13609 18.1599 7.43153 18.2796 7.74184 18.337C8.05215 18.3943 8.37087 18.3882 8.67873 18.3188C8.98659 18.2495 9.27719 18.1185 9.53294 17.9336C9.7887 17.7487 10.0043 17.5139 10.1667 17.2434L12.0717 14.39C12.895 13.1577 13.3341 11.7087 13.3334 10.2267V4.16669H6.50004L2.47671 9.19502C1.41257 10.5253 0.833001 12.1782 0.833374 13.8817V22.5C0.833374 23.1631 1.09677 23.7989 1.56561 24.2678C2.03445 24.7366 2.67033 25 3.33337 25C3.99642 25 4.6323 24.7366 5.10114 24.2678C5.56998 23.7989 5.83337 23.1631 5.83337 22.5V16.0417" stroke="#389344" stroke-linecap="round" stroke-linejoin="round"/>
<path d="M31.6666 11.25L33.92 15C34.1743 15.5088 34.234 16.0929 34.0879 16.6426C33.9418 17.1923 33.5999 17.6696 33.1266 17.985C32.8639 18.1601 32.5683 18.2801 32.2578 18.3376C31.9473 18.3951 31.6284 18.389 31.3203 18.3197C31.0123 18.2504 30.7215 18.1192 30.4656 17.9342C30.2097 17.7492 29.994 17.5142 29.8316 17.2434L27.9283 14.39C27.105 13.1577 26.6659 11.7087 26.6666 10.2267V4.16669H33.5L37.5233 9.19502C38.5874 10.5253 39.167 12.1782 39.1666 13.8817V22.5C39.1666 22.8283 39.102 23.1534 38.9763 23.4567C38.8507 23.76 38.6665 24.0356 38.4344 24.2678C38.2022 24.4999 37.9266 24.6841 37.6233 24.8097C37.32 24.9354 36.9949 25 36.6666 25C36.0036 25 35.3677 24.7366 34.8989 24.2678C34.43 23.7989 34.1666 23.1631 34.1666 22.5V16.0417" fill="#E1EFE3"/>
<path d="M31.6666 11.25L33.92 15C34.1743 15.5088 34.234 16.0929 34.0879 16.6426C33.9418 17.1923 33.5999 17.6696 33.1266 17.985C32.8639 18.1601 32.5683 18.2801 32.2578 18.3376C31.9473 18.3951 31.6284 18.389 31.3203 18.3197C31.0123 18.2504 30.7215 18.1192 30.4656 17.9342C30.2097 17.7492 29.994 17.5142 29.8316 17.2434L27.9283 14.39C27.105 13.1577 26.6659 11.7087 26.6666 10.2267V4.16669H33.5L37.5233 9.19502C38.5874 10.5253 39.167 12.1782 39.1666 13.8817V22.5C39.1666 22.8283 39.102 23.1534 38.9763 23.4567C38.8507 23.76 38.6665 24.0356 38.4344 24.2678C38.2022 24.4999 37.9266 24.6841 37.6233 24.8097C37.32 24.9354 36.9949 25 36.6666 25C36.0036 25 35.3677 24.7366 34.8989 24.2678C34.43 23.7989 34.1666 23.1631 34.1666 22.5V16.0417" stroke="#389344" stroke-linecap="round" stroke-linejoin="round"/>
<path d="M32.5783 26.875C29.3933 32.3917 22.3716 37.6517 20.4783 39.01C20.3396 39.1118 20.172 39.1667 20 39.1667C19.8279 39.1667 19.6603 39.1118 19.5216 39.01C17.6283 37.6517 10.6066 32.3917 7.42163 26.875" stroke="#389344" stroke-linecap="round" stroke-linejoin="round"/>
</g>
<defs>
<clipPath id="clip0_2_431">
<rect width="40" height="40" fill="white"/>
</clipPath>
</defs>
</svg>
