<svg width="40" height="40" viewBox="0 0 40 40" fill="none" xmlns="http://www.w3.org/2000/svg">
<path d="M13.9467 28.755L16.3034 31.1117C16.4626 31.2654 16.5895 31.4493 16.6769 31.6527C16.7642 31.856 16.8102 32.0747 16.8121 32.296C16.814 32.5173 16.7719 32.7368 16.6881 32.9416C16.6043 33.1464 16.4805 33.3325 16.324 33.489C16.1675 33.6455 15.9815 33.7692 15.7766 33.853C15.5718 33.9368 15.3523 33.979 15.131 33.9771C14.9097 33.9752 14.691 33.9292 14.4877 33.8418C14.2844 33.7545 14.1004 33.6275 13.9467 33.4683L12.7684 34.6483C12.9355 34.8001 13.0701 34.9843 13.1639 35.1896C13.2577 35.395 13.3088 35.6173 13.3142 35.843C13.3195 36.0687 13.2789 36.2931 13.1948 36.5027C13.1108 36.7122 12.985 36.9025 12.8252 37.062C12.6654 37.2215 12.4748 37.3468 12.2651 37.4304C12.0554 37.514 11.8309 37.5541 11.6052 37.5483C11.3795 37.5425 11.1573 37.4909 10.9521 37.3967C10.747 37.3024 10.5631 37.1675 10.4117 37L7.57837 34.1667" fill="#C1DEC5"/>
<path d="M13.9467 28.755L16.3034 31.1117C16.4626 31.2654 16.5895 31.4493 16.6769 31.6527C16.7642 31.856 16.8102 32.0747 16.8121 32.296C16.814 32.5173 16.7719 32.7368 16.6881 32.9416C16.6043 33.1464 16.4805 33.3325 16.324 33.489C16.1675 33.6455 15.9815 33.7692 15.7766 33.853C15.5718 33.9368 15.3523 33.979 15.131 33.9771C14.9097 33.9752 14.691 33.9292 14.4877 33.8418C14.2844 33.7545 14.1004 33.6275 13.9467 33.4683L12.7684 34.6483C12.9355 34.8001 13.0701 34.9843 13.1639 35.1896C13.2577 35.395 13.3088 35.6173 13.3142 35.843C13.3195 36.0687 13.2789 36.2931 13.1948 36.5027C13.1108 36.7122 12.985 36.9025 12.8252 37.062C12.6654 37.2215 12.4748 37.3468 12.2651 37.4304C12.0554 37.514 11.8309 37.5541 11.6052 37.5483C11.3795 37.5425 11.1573 37.4909 10.9521 37.3967C10.747 37.3024 10.5631 37.1675 10.4117 37L7.57837 34.1667" stroke="#389344" stroke-linecap="round" stroke-linejoin="round"/>
<path d="M18.2783 17.3533L5.73161 29.8983C5.26262 30.3673 4.99915 31.0034 4.99915 31.6667C4.99915 32.3299 5.26262 32.966 5.73161 33.435C6.2006 33.904 6.83669 34.1675 7.49995 34.1675C8.1632 34.1675 8.79929 33.904 9.26828 33.435L21.8133 20.8883L18.2783 17.3533Z" fill="#C1DEC5"/>
<path d="M20.045 19.1217L18.2784 17.3533L5.7317 29.8983C5.49938 30.1305 5.31509 30.4062 5.18936 30.7096C5.06362 31.013 4.9989 31.3382 4.9989 31.6667C4.9989 31.9951 5.06362 32.3203 5.18936 32.6237C5.31509 32.9272 5.49938 33.2028 5.7317 33.435L20.045 19.1217Z" fill="#E1EFE3"/>
<path d="M18.2783 17.3533L5.73161 29.8983C5.26262 30.3673 4.99915 31.0034 4.99915 31.6667C4.99915 32.3299 5.26262 32.966 5.73161 33.435C6.2006 33.904 6.83669 34.1675 7.49995 34.1675C8.1632 34.1675 8.79929 33.904 9.26828 33.435L21.8133 20.8883" stroke="#389344" stroke-linecap="round" stroke-linejoin="round"/>
<path d="M3.33337 17.9167C3.33337 17.8062 3.37727 17.7002 3.45541 17.622C3.53355 17.5439 3.63953 17.5 3.75004 17.5" stroke="#389344" stroke-linecap="round" stroke-linejoin="round"/>
<path d="M3.75004 18.3334C3.63953 18.3334 3.53355 18.2895 3.45541 18.2113C3.37727 18.1332 3.33337 18.0272 3.33337 17.9167" stroke="#389344" stroke-linecap="round" stroke-linejoin="round"/>
<path d="M4.16667 17.9167C4.16667 18.0272 4.12277 18.1332 4.04463 18.2113C3.96649 18.2895 3.86051 18.3334 3.75 18.3334" stroke="#389344" stroke-linecap="round" stroke-linejoin="round"/>
<path d="M3.75 17.5C3.86051 17.5 3.96649 17.5439 4.04463 17.622C4.12277 17.7002 4.16667 17.8062 4.16667 17.9167" stroke="#389344" stroke-linecap="round" stroke-linejoin="round"/>
<path d="M32.5 34.5834C32.5 34.4728 32.5439 34.3669 32.622 34.2887C32.7002 34.2106 32.8062 34.1667 32.9167 34.1667" stroke="#389344" stroke-linecap="round" stroke-linejoin="round"/>
<path d="M32.9167 35C32.8062 35 32.7002 34.9561 32.622 34.8779C32.5439 34.7998 32.5 34.6938 32.5 34.5833" stroke="#389344" stroke-linecap="round" stroke-linejoin="round"/>
<path d="M33.3333 34.5833C33.3333 34.6938 33.2894 34.7998 33.2113 34.8779C33.1331 34.9561 33.0271 35 32.9166 35" stroke="#389344" stroke-linecap="round" stroke-linejoin="round"/>
<path d="M32.9166 34.1667C33.0271 34.1667 33.1331 34.2106 33.2113 34.2887C33.2894 34.3669 33.3333 34.4728 33.3333 34.5834" stroke="#389344" stroke-linecap="round" stroke-linejoin="round"/>
<path d="M10.8334 2.91667C10.8334 2.80616 10.8773 2.70018 10.9554 2.62204C11.0336 2.5439 11.1395 2.5 11.25 2.5" stroke="#389344" stroke-linecap="round" stroke-linejoin="round"/>
<path d="M11.25 3.33335C11.1395 3.33335 11.0336 3.28945 10.9554 3.21131C10.8773 3.13317 10.8334 3.02719 10.8334 2.91669" stroke="#389344" stroke-linecap="round" stroke-linejoin="round"/>
<path d="M11.6667 2.91669C11.6667 3.02719 11.6228 3.13317 11.5446 3.21131C11.4665 3.28945 11.3605 3.33335 11.25 3.33335" stroke="#389344" stroke-linecap="round" stroke-linejoin="round"/>
<path d="M11.25 2.5C11.3605 2.5 11.4665 2.5439 11.5446 2.62204C11.6228 2.70018 11.6667 2.80616 11.6667 2.91667" stroke="#389344" stroke-linecap="round" stroke-linejoin="round"/>
<path d="M1.66663 9.16669H4.99996" stroke="#389344" stroke-linecap="round" stroke-linejoin="round"/>
<path d="M3.33337 7.5V10.8333" stroke="#389344" stroke-linecap="round" stroke-linejoin="round"/>
<path d="M20 37.5H23.3333" stroke="#389344" stroke-linecap="round" stroke-linejoin="round"/>
<path d="M21.6666 35.8333V39.1666" stroke="#389344" stroke-linecap="round" stroke-linejoin="round"/>
<path d="M27.5 0.833313C25.3573 0.833313 23.2628 1.46868 21.4813 2.65906C19.6998 3.84944 18.3112 5.54138 17.4913 7.52091C16.6713 9.50044 16.4568 11.6787 16.8748 13.7801C17.2928 15.8816 18.3246 17.8119 19.8396 19.327C21.3547 20.842 23.285 21.8738 25.3865 22.2918C27.4879 22.7098 29.6662 22.4953 31.6457 21.6753C33.6252 20.8554 35.3172 19.4669 36.5075 17.6853C37.6979 15.9038 38.3333 13.8093 38.3333 11.6666C38.3333 10.244 38.0531 8.83527 37.5087 7.52091C36.9642 6.20655 36.1663 5.01229 35.1603 4.00632C34.1543 3.00035 32.9601 2.20238 31.6457 1.65795C30.3313 1.11353 28.9226 0.833313 27.5 0.833313ZM27.5 17.5C26.3462 17.5 25.2184 17.1579 24.2591 16.5169C23.2998 15.8759 22.5522 14.9649 22.1107 13.899C21.6692 12.8331 21.5536 11.6602 21.7787 10.5286C22.0038 9.39706 22.5594 8.35766 23.3752 7.54186C24.191 6.72605 25.2304 6.17048 26.3619 5.9454C27.4935 5.72032 28.6664 5.83584 29.7323 6.27735C30.7982 6.71886 31.7092 7.46653 32.3502 8.42582C32.9912 9.38511 33.3333 10.5129 33.3333 11.6666C33.3333 13.2137 32.7187 14.6975 31.6248 15.7914C30.5308 16.8854 29.0471 17.5 27.5 17.5Z" fill="#C1DEC5"/>
<path d="M35.1667 3.99998C33.1334 1.96665 30.3756 0.824341 27.5 0.824341C24.6245 0.824341 21.8667 1.96665 19.8334 3.99998C17.8 6.03331 16.6577 8.79109 16.6577 11.6666C16.6577 14.5422 17.8 17.3 19.8334 19.3333L23.3684 15.7983C22.2743 14.7043 21.6597 13.2205 21.6597 11.6733C21.6597 10.1261 22.2743 8.64233 23.3684 7.54831C24.4624 6.45429 25.9462 5.83968 27.4934 5.83968C29.0405 5.83968 30.5243 6.45429 31.6184 7.54831L35.1667 3.99998Z" fill="#E1EFE3"/>
<path d="M27.5 0.833313C25.3573 0.833313 23.2628 1.46868 21.4813 2.65906C19.6998 3.84944 18.3112 5.54138 17.4913 7.52091C16.6713 9.50044 16.4568 11.6787 16.8748 13.7801C17.2928 15.8816 18.3246 17.8119 19.8396 19.327C21.3547 20.842 23.285 21.8738 25.3865 22.2918C27.4879 22.7098 29.6662 22.4953 31.6457 21.6753C33.6252 20.8554 35.3172 19.4669 36.5075 17.6853C37.6979 15.9038 38.3333 13.8093 38.3333 11.6666C38.3333 10.244 38.0531 8.83527 37.5087 7.52091C36.9642 6.20655 36.1663 5.01229 35.1603 4.00632C34.1543 3.00035 32.9601 2.20238 31.6457 1.65795C30.3313 1.11353 28.9226 0.833313 27.5 0.833313ZM27.5 17.5C26.3462 17.5 25.2184 17.1579 24.2591 16.5169C23.2998 15.8759 22.5522 14.9649 22.1107 13.899C21.6692 12.8331 21.5536 11.6602 21.7787 10.5286C22.0038 9.39706 22.5594 8.35766 23.3752 7.54186C24.191 6.72605 25.2304 6.17048 26.3619 5.9454C27.4935 5.72032 28.6664 5.83584 29.7323 6.27735C30.7982 6.71886 31.7092 7.46653 32.3502 8.42582C32.9912 9.38511 33.3333 10.5129 33.3333 11.6666C33.3333 13.2137 32.7187 14.6975 31.6248 15.7914C30.5308 16.8854 29.0471 17.5 27.5 17.5Z" stroke="#389344" stroke-linecap="round" stroke-linejoin="round"/>
</svg>
