<svg width="40" height="40" viewBox="0 0 40 40" fill="none" xmlns="http://www.w3.org/2000/svg">
<path d="M1.59998 2.5H38.4V25.8333H1.59998V2.5Z" fill="#F3F3F3"/>
<path d="M1.59998 25.8333V2.5H38.4L1.59998 25.8333Z" fill="#FBFBFB"/>
<path d="M1.59998 2.5H38.4V25.8333H1.59998V2.5Z" stroke="#CCCCCC" stroke-linecap="round" stroke-linejoin="round"/>
<path d="M1.59998 0.833344V39.1667" stroke="#CCCCCC" stroke-linecap="round" stroke-linejoin="round"/>
<path d="M38.4 0.833344V39.1667" stroke="#CCCCCC" stroke-linecap="round" stroke-linejoin="round"/>
<path d="M27.1983 16.6667C27.2131 16.991 27.162 17.3149 27.0481 17.6188C26.9342 17.9228 26.7599 18.2006 26.5357 18.4353C26.3114 18.67 26.0419 18.8568 25.7435 18.9845C25.445 19.1121 25.1237 19.1779 24.7991 19.1779C24.4745 19.1779 24.1533 19.1121 23.8548 18.9845C23.5563 18.8568 23.2868 18.67 23.0626 18.4353C22.8384 18.2006 22.664 17.9228 22.5501 17.6188C22.4362 17.3149 22.3852 16.991 22.4 16.6667V11.6667C22.3852 11.3424 22.4362 11.0185 22.5501 10.7145C22.664 10.4105 22.8384 10.1328 23.0626 9.89807C23.2868 9.66336 23.5563 9.47654 23.8548 9.3489C24.1533 9.22126 24.4745 9.15546 24.7991 9.15546C25.1237 9.15546 25.445 9.22126 25.7435 9.3489C26.0419 9.47654 26.3114 9.66336 26.5357 9.89807C26.7599 10.1328 26.9342 10.4105 27.0481 10.7145C27.162 11.0185 27.2131 11.3424 27.1983 11.6667V16.6667Z" stroke="#CCCCCC" stroke-linecap="round" stroke-linejoin="round"/>
<path d="M17.5983 12.5V11.6667C17.6131 11.3424 17.562 11.0185 17.4482 10.7145C17.3343 10.4105 17.1599 10.1328 16.9357 9.89807C16.7114 9.66336 16.442 9.47654 16.1435 9.3489C15.845 9.22126 15.5238 9.15546 15.1992 9.15546C14.8745 9.15546 14.5533 9.22126 14.2548 9.3489C13.9564 9.47654 13.6869 9.66336 13.4626 9.89807C13.2384 10.1328 13.064 10.4105 12.9502 10.7145C12.8363 11.0185 12.7852 11.3424 12.8 11.6667V16.6667C12.7852 16.991 12.8363 17.3149 12.9502 17.6188C13.064 17.9228 13.2384 18.2006 13.4626 18.4353C13.6869 18.67 13.9564 18.8568 14.2548 18.9845C14.5533 19.1121 14.8745 19.1779 15.1992 19.1779C15.5238 19.1779 15.845 19.1121 16.1435 18.9845C16.442 18.8568 16.7114 18.67 16.9357 18.4353C17.1599 18.2006 17.3343 17.9228 17.4482 17.6188C17.562 17.3149 17.6131 16.991 17.5983 16.6667V15.8333H16" stroke="#CCCCCC" stroke-linecap="round" stroke-linejoin="round"/>
</svg>
