<svg width="40" height="40" viewBox="0 0 40 40" fill="none" xmlns="http://www.w3.org/2000/svg">
<g clip-path="url(#clip0_1295_3637)">
<path d="M19.1667 29.1666L12.5 35.8333V29.1666H2.50001C2.05798 29.1666 1.63406 28.991 1.3215 28.6784C1.00894 28.3659 0.833344 27.9419 0.833344 27.4999V2.49992C0.833344 2.05789 1.00894 1.63397 1.3215 1.32141C1.63406 1.00885 2.05798 0.833252 2.50001 0.833252H32.5C32.942 0.833252 33.366 1.00885 33.6785 1.32141C33.9911 1.63397 34.1667 2.05789 34.1667 2.49992V27.4999C34.1667 27.9419 33.9911 28.3659 33.6785 28.6784C33.366 28.991 32.942 29.1666 32.5 29.1666H19.1667Z" fill="#C1DEC5"/>
<path d="M2.50001 29.1666H3.33334L31.6667 0.833252H2.50001C2.05798 0.833252 1.63406 1.00885 1.3215 1.32141C1.00894 1.63397 0.833344 2.05789 0.833344 2.49992V27.4999C0.833344 27.9419 1.00894 28.3659 1.3215 28.6784C1.63406 28.991 2.05798 29.1666 2.50001 29.1666Z" fill="#E1EFE3"/>
<path d="M19.1667 30.8333C19.1667 31.2754 19.3423 31.6993 19.6548 32.0118C19.9674 32.3244 20.3913 32.5 20.8333 32.5H27.5L34.1667 39.1667V32.5H37.5C37.942 32.5 38.3659 32.3244 38.6785 32.0118C38.9911 31.6993 39.1667 31.2754 39.1667 30.8333V19.1667C39.1667 18.7246 38.9911 18.3007 38.6785 17.9882C38.3659 17.6756 37.942 17.5 37.5 17.5H20.8333C20.3913 17.5 19.9674 17.6756 19.6548 17.9882C19.3423 18.3007 19.1667 18.7246 19.1667 19.1667V30.8333Z" fill="#E1EFE3"/>
<path d="M37.5 17.5H20.8333C20.3913 17.5 19.9674 17.6756 19.6548 17.9882C19.3423 18.3007 19.1667 18.7246 19.1667 19.1667V30.8333C19.1667 31.2754 19.3423 31.6993 19.6548 32.0118C19.9674 32.3244 20.3913 32.5 20.8333 32.5H22.5L37.5 17.5Z" fill="white"/>
<path d="M15.7083 32.6249L12.5 35.8333V29.1666H2.50001C2.05798 29.1666 1.63406 28.991 1.3215 28.6784C1.00894 28.3659 0.833344 27.9419 0.833344 27.4999V2.49992C0.833344 2.05789 1.00894 1.63397 1.3215 1.32141C1.63406 1.00885 2.05798 0.833252 2.50001 0.833252H32.5C32.942 0.833252 33.366 1.00885 33.6785 1.32141C33.9911 1.63397 34.1667 2.05789 34.1667 2.49992V14.1666" stroke="#389344" stroke-width="1.5" stroke-linecap="round" stroke-linejoin="round"/>
<path d="M19.1667 30.8333C19.1667 31.2754 19.3423 31.6993 19.6548 32.0118C19.9674 32.3244 20.3913 32.5 20.8333 32.5H27.5L34.1667 39.1667V32.5H37.5C37.942 32.5 38.3659 32.3244 38.6785 32.0118C38.9911 31.6993 39.1667 31.2754 39.1667 30.8333V19.1667C39.1667 18.7246 38.9911 18.3007 38.6785 17.9882C38.3659 17.6756 37.942 17.5 37.5 17.5H20.8333C20.3913 17.5 19.9674 17.6756 19.6548 17.9882C19.3423 18.3007 19.1667 18.7246 19.1667 19.1667V30.8333Z" stroke="#389344" stroke-width="1.5" stroke-linecap="round" stroke-linejoin="round"/>
<path d="M24.1667 24.5833C24.2491 24.5833 24.3296 24.6077 24.3982 24.6535C24.4667 24.6993 24.5201 24.7643 24.5516 24.8405C24.5832 24.9166 24.5914 25.0004 24.5753 25.0812C24.5593 25.162 24.5196 25.2363 24.4613 25.2945C24.403 25.3528 24.3288 25.3925 24.248 25.4086C24.1671 25.4247 24.0834 25.4164 24.0072 25.3849C23.9311 25.3533 23.866 25.2999 23.8202 25.2314C23.7744 25.1629 23.75 25.0823 23.75 24.9999C23.75 24.8894 23.7939 24.7834 23.872 24.7053C23.9502 24.6272 24.0562 24.5833 24.1667 24.5833Z" stroke="#389344" stroke-width="1.5" stroke-linecap="round" stroke-linejoin="round"/>
<path d="M29.1667 24.5833C29.2491 24.5833 29.3296 24.6077 29.3982 24.6535C29.4667 24.6993 29.5201 24.7643 29.5516 24.8405C29.5832 24.9166 29.5914 25.0004 29.5753 25.0812C29.5592 25.162 29.5196 25.2363 29.4613 25.2945C29.403 25.3528 29.3288 25.3925 29.248 25.4086C29.1671 25.4247 29.0834 25.4164 29.0072 25.3849C28.9311 25.3533 28.866 25.2999 28.8202 25.2314C28.7744 25.1629 28.75 25.0823 28.75 24.9999C28.75 24.8894 28.7939 24.7834 28.872 24.7053C28.9502 24.6272 29.0562 24.5833 29.1667 24.5833Z" stroke="#389344" stroke-width="1.5" stroke-linecap="round" stroke-linejoin="round"/>
<path d="M34.1667 24.5833C34.2491 24.5833 34.3296 24.6077 34.3982 24.6535C34.4667 24.6993 34.5201 24.7643 34.5516 24.8405C34.5832 24.9166 34.5914 25.0004 34.5753 25.0812C34.5592 25.162 34.5196 25.2363 34.4613 25.2945C34.403 25.3528 34.3288 25.3925 34.248 25.4086C34.1671 25.4247 34.0834 25.4164 34.0072 25.3849C33.9311 25.3533 33.866 25.2999 33.8202 25.2314C33.7744 25.1629 33.75 25.0823 33.75 24.9999C33.75 24.8894 33.7939 24.7834 33.872 24.7053C33.9502 24.6272 34.0562 24.5833 34.1667 24.5833Z" stroke="#389344" stroke-width="1.5" stroke-linecap="round" stroke-linejoin="round"/>
<path d="M12.5 7.5V10.8333" stroke="#389344" stroke-width="1.5" stroke-linecap="round" stroke-linejoin="round"/>
<path d="M22.5 7.5V10.8333" stroke="#389344" stroke-width="1.5" stroke-linecap="round" stroke-linejoin="round"/>
<path d="M15.7883 22.4999C13.757 22.1493 11.8844 21.1775 10.4283 19.7183" stroke="#389344" stroke-width="1.5" stroke-linecap="round" stroke-linejoin="round"/>
</g>
<defs>
<clipPath id="clip0_1295_3637">
<rect width="40" height="40" fill="white"/>
</clipPath>
</defs>
</svg>
