<svg width="40" height="40" viewBox="0 0 40 40" fill="none" xmlns="http://www.w3.org/2000/svg">
<path d="M37.9317 18.7465L34.1533 13.6849C35.4733 15.1449 37.05 13.0182 35.9467 11.4799L32.1667 6.40155C32.0131 6.19211 31.8124 6.0218 31.5807 5.9044C31.3491 5.78701 31.093 5.72583 30.8333 5.72583C30.5736 5.72583 30.3176 5.78701 30.0859 5.9044C29.8543 6.0218 29.6536 6.19211 29.5 6.40155L25.7283 11.4799C24.625 13.0115 26.2017 15.1465 27.5233 13.6849L23.7433 18.7465C23.5656 18.9459 23.4422 19.1878 23.3852 19.4487C23.3282 19.7097 23.3395 19.9809 23.4179 20.2363C23.4963 20.4916 23.6392 20.7224 23.8329 20.9064C24.0265 21.0904 24.2643 21.2213 24.5233 21.2865H37.1517C37.4107 21.2213 37.6485 21.0904 37.8421 20.9064C38.0358 20.7224 38.1787 20.4916 38.2571 20.2363C38.3356 19.9809 38.3468 19.7097 38.2898 19.4487C38.2328 19.1878 38.1094 18.9459 37.9317 18.7465Z" fill="#E1EFE3"/>
<path d="M35.9533 16.0967C32.674 17.4345 29.001 17.4345 25.7217 16.0967L23.7433 18.7483C23.566 18.9477 23.443 19.1894 23.3862 19.4502C23.3294 19.7109 23.3408 19.9819 23.4192 20.237C23.4975 20.492 23.6403 20.7226 23.8337 20.9065C24.0271 21.0904 24.2646 21.2213 24.5233 21.2867H37.1517C37.4104 21.2213 37.6479 21.0904 37.8413 20.9065C38.0347 20.7226 38.1775 20.492 38.2558 20.237C38.3342 19.9819 38.3456 19.7109 38.2888 19.4502C38.232 19.1894 38.109 18.9477 37.9317 18.7483L35.9533 16.0967Z" fill="#C1DEC5"/>
<path d="M20.3683 21.9351L17 17.6334C17.1439 17.7812 17.3155 17.8991 17.505 17.9805C17.6945 18.062 17.8982 18.1053 18.1044 18.108C18.3106 18.1107 18.5153 18.0727 18.7069 17.9963C18.8985 17.9199 19.0731 17.8065 19.2208 17.6626C19.3686 17.5187 19.4865 17.3471 19.5679 17.1576C19.6494 16.9681 19.6927 16.7645 19.6954 16.5582C19.6981 16.352 19.6601 16.1473 19.5837 15.9557C19.5073 15.7641 19.3939 15.5895 19.25 15.4418L14.8167 10.0968C16.3667 11.6368 18.4633 9.49677 16.9217 7.76344L12.0467 2.57677C11.8908 2.41131 11.7028 2.27946 11.4942 2.18934C11.2855 2.09922 11.0606 2.05273 10.8333 2.05273C10.606 2.05273 10.3812 2.09922 10.1725 2.18934C9.96384 2.27946 9.77582 2.41131 9.62 2.57677L4.745 7.76677C3.20333 9.49677 5.3 11.6368 6.84833 10.1001L2.415 15.4418C2.27109 15.5896 2.15772 15.7644 2.08134 15.956C2.00497 16.1477 1.96709 16.3525 1.96988 16.5588C1.97266 16.7651 2.01606 16.9689 2.09758 17.1584C2.1791 17.3479 2.29715 17.5195 2.445 17.6634C2.59285 17.8073 2.76759 17.9207 2.95925 17.9971C3.15092 18.0735 3.35575 18.1113 3.56205 18.1086C3.76835 18.1058 3.97208 18.0624 4.16161 17.9809C4.35114 17.8993 4.52276 17.7813 4.66667 17.6334L1.29667 21.9351C1.0776 22.1547 0.928407 22.4342 0.867876 22.7384C0.807345 23.0426 0.838184 23.3579 0.956507 23.6447C1.07483 23.9314 1.27535 24.1767 1.53281 24.3497C1.79027 24.5227 2.09316 24.6156 2.40333 24.6168H19.2617C19.5722 24.6164 19.8756 24.5239 20.1336 24.3511C20.3916 24.1782 20.5925 23.9327 20.711 23.6457C20.8294 23.3586 20.8601 23.0429 20.7991 22.7384C20.7381 22.4339 20.5882 22.1544 20.3683 21.9351Z" fill="#E1EFE3"/>
<path d="M17 17.6333C17.1439 17.781 17.3155 17.899 17.505 17.9804C17.6945 18.0618 17.8982 18.1051 18.1044 18.1078C18.3106 18.1105 18.5153 18.0726 18.7069 17.9962C18.8985 17.9197 19.0731 17.8063 19.2208 17.6624C19.3686 17.5185 19.4865 17.3469 19.5679 17.1574C19.6494 16.968 19.6927 16.7643 19.6954 16.5581C19.6981 16.3518 19.6601 16.1471 19.5837 15.9555C19.5073 15.764 19.3939 15.5893 19.25 15.4416L18.3817 14.3916C16.0428 15.5797 13.4567 16.1993 10.8333 16.1999C8.21001 16.1993 5.62384 15.5797 3.285 14.3916L2.415 15.4416C2.12437 15.7402 1.96425 16.142 1.96988 16.5586C1.9755 16.9753 2.14641 17.3726 2.445 17.6633C2.74359 17.9539 3.1454 18.114 3.56205 18.1084C3.97869 18.1028 4.37603 17.9319 4.66667 17.6333L1.29667 21.9349C1.07703 22.1544 0.927338 22.4341 0.86648 22.7386C0.805622 23.0431 0.836326 23.3588 0.954717 23.6458C1.07311 23.9329 1.27388 24.1785 1.5317 24.3515C1.78951 24.5246 2.09282 24.6174 2.40333 24.6183H19.2617C19.5722 24.6174 19.8755 24.5246 20.1333 24.3515C20.3911 24.1785 20.5919 23.9329 20.7103 23.6458C20.8287 23.3588 20.8594 23.0431 20.7985 22.7386C20.7377 22.4341 20.588 22.1544 20.3683 21.9349L17 17.6333Z" fill="#C1DEC5"/>
<path d="M20.3683 21.9351L17 17.6334C17.1439 17.7812 17.3155 17.8991 17.505 17.9805C17.6945 18.062 17.8982 18.1053 18.1044 18.108C18.3106 18.1107 18.5153 18.0727 18.7069 17.9963C18.8985 17.9199 19.0731 17.8065 19.2208 17.6626C19.3686 17.5187 19.4865 17.3471 19.5679 17.1576C19.6494 16.9681 19.6927 16.7645 19.6954 16.5582C19.6981 16.352 19.6601 16.1473 19.5837 15.9557C19.5073 15.7641 19.3939 15.5895 19.25 15.4418L14.8167 10.0968C16.3667 11.6368 18.4633 9.49677 16.9217 7.76344L12.0467 2.57677C11.8908 2.41131 11.7028 2.27946 11.4942 2.18934C11.2855 2.09922 11.0606 2.05273 10.8333 2.05273C10.606 2.05273 10.3812 2.09922 10.1725 2.18934C9.96384 2.27946 9.77582 2.41131 9.62 2.57677L4.745 7.76677C3.20333 9.49677 5.3 11.6368 6.84833 10.1001L2.415 15.4418C2.27109 15.5896 2.15772 15.7644 2.08134 15.956C2.00497 16.1477 1.96709 16.3525 1.96988 16.5588C1.97266 16.7651 2.01606 16.9689 2.09758 17.1584C2.1791 17.3479 2.29715 17.5195 2.445 17.6634C2.59285 17.8073 2.76759 17.9207 2.95925 17.9971C3.15092 18.0735 3.35575 18.1113 3.56205 18.1086C3.76835 18.1058 3.97208 18.0624 4.16161 17.9809C4.35114 17.8993 4.52276 17.7813 4.66667 17.6334L1.29667 21.9351C1.0776 22.1547 0.928407 22.4342 0.867876 22.7384C0.807345 23.0426 0.838184 23.3579 0.956507 23.6447C1.07483 23.9314 1.27535 24.1767 1.53281 24.3497C1.79027 24.5227 2.09316 24.6156 2.40333 24.6168H19.2617C19.5722 24.6164 19.8756 24.5239 20.1336 24.3511C20.3916 24.1782 20.5925 23.9327 20.711 23.6457C20.8294 23.3586 20.8601 23.0429 20.7991 22.7384C20.7381 22.4339 20.5882 22.1544 20.3683 21.9351Z" stroke="#389344" stroke-width="1.5" stroke-linecap="round" stroke-linejoin="round"/>
<path d="M37.9317 18.7465L34.1533 13.6849C35.4733 15.1449 37.05 13.0182 35.9467 11.4799L32.1667 6.40155C32.0131 6.19211 31.8124 6.0218 31.5807 5.9044C31.3491 5.78701 31.093 5.72583 30.8333 5.72583C30.5736 5.72583 30.3176 5.78701 30.0859 5.9044C29.8543 6.0218 29.6536 6.19211 29.5 6.40155L25.7283 11.4799C24.625 13.0115 26.2017 15.1465 27.5233 13.6849L23.7433 18.7465C23.5656 18.9459 23.4422 19.1878 23.3852 19.4487C23.3282 19.7097 23.3395 19.9809 23.4179 20.2363C23.4963 20.4916 23.6392 20.7224 23.8329 20.9064C24.0265 21.0904 24.2643 21.2213 24.5233 21.2865H37.1517C37.4107 21.2213 37.6485 21.0904 37.8421 20.9064C38.0358 20.7224 38.1787 20.4916 38.2571 20.2363C38.3356 19.9809 38.3468 19.7097 38.2898 19.4487C38.2328 19.1878 38.1094 18.9459 37.9317 18.7465Z" stroke="#389344" stroke-width="1.5" stroke-linecap="round" stroke-linejoin="round"/>
<path d="M10.8333 24.6201V31.4868" stroke="#389344" stroke-width="1.5" stroke-linecap="round" stroke-linejoin="round"/>
<path d="M30.8333 21.2866V26.2866" stroke="#389344" stroke-width="1.5" stroke-linecap="round" stroke-linejoin="round"/>
<path d="M32.5 26.2866C27.828 26.2796 23.2483 27.5878 19.285 30.0617L15.3983 32.4183C10.6563 31.0357 5.63499 30.9179 0.833332 32.0766L0.858332 38.3333C0.858332 38.7753 1.03393 39.1993 1.34649 39.5118C1.65905 39.8244 2.08297 40 2.525 40H37.5C37.942 40 38.366 39.8244 38.6785 39.5118C38.9911 39.1993 39.1667 38.7753 39.1667 38.3333V27.1866C36.9952 26.5875 34.7526 26.2848 32.5 26.2866Z" fill="#C1DEC5"/>
<path d="M32.5 26.2866C27.828 26.2796 23.2483 27.5878 19.285 30.0617L15.3983 32.4183C10.6563 31.0357 5.63499 30.9179 0.833332 32.0766L0.858332 38.3333C0.858332 38.7753 1.03393 39.1993 1.34649 39.5118C1.65905 39.8244 2.08297 40 2.525 40H37.5C37.942 40 38.366 39.8244 38.6785 39.5118C38.9911 39.1993 39.1667 38.7753 39.1667 38.3333V27.1866C36.9952 26.5875 34.7526 26.2848 32.5 26.2866Z" fill="#C1DEC5"/>
<path d="M32.5 26.2866C27.828 26.2796 23.2483 27.5878 19.285 30.0617L15.3983 32.4183C10.6563 31.0357 5.63499 30.9179 0.833332 32.0766L0.849999 36.3766C3.02795 35.8536 5.26013 35.5901 7.5 35.5916C12.5155 35.4721 17.4286 37.0228 21.4667 40H27.8933L25.75 37.9483C23.9004 36.4449 21.8937 35.1457 19.765 34.0733C22.6607 32.3643 25.8705 31.2549 29.2035 30.8111C32.5365 30.3674 35.9247 30.5982 39.1667 31.49V27.1866C36.9952 26.5875 34.7526 26.2848 32.5 26.2866Z" fill="#C1DEC5"/>
<path d="M0.833332 32.0767C5.15615 31.0347 9.66333 31.0232 13.9914 32.0432C18.3195 33.0631 22.3473 35.0858 25.75 37.9483" stroke="#389344" stroke-width="1.5" stroke-linecap="round" stroke-linejoin="round"/>
<path d="M19.285 30.0616C22.2214 28.2368 25.5035 27.0394 28.9251 26.5446C32.3467 26.0498 35.8337 26.2684 39.1667 27.1866" stroke="#389344" stroke-width="1.5" stroke-linecap="round" stroke-linejoin="round"/>
</svg>
