<svg width="40" height="40" viewBox="0 0 40 40" fill="none" xmlns="http://www.w3.org/2000/svg">
<path d="M2.5 6.29164V19.02C2.54897 23.2258 3.8893 27.3149 6.33947 30.7337C8.78965 34.1524 12.2313 36.7355 16.1983 38.1333L18.0667 38.8233C19.3148 39.2817 20.6852 39.2817 21.9333 38.8233L23.8017 38.1333C27.7687 36.7355 31.2104 34.1524 33.6605 30.7337C36.1107 27.3149 37.451 23.2258 37.5 19.02V6.29164C37.4983 5.79157 37.3499 5.30298 37.0732 4.88643C36.7965 4.46989 36.4037 4.1437 35.9433 3.94831C30.8944 1.84191 25.4705 0.782186 20 0.833308C14.5295 0.782186 9.1056 1.84191 4.05667 3.94831C3.59634 4.1437 3.20348 4.46989 2.92677 4.88643C2.65006 5.30298 2.50167 5.79157 2.5 6.29164Z" fill="#C1DEC5"/>
<path d="M20 0.833368C14.5295 0.781366 9.10534 1.84112 4.05667 3.94837C3.59634 4.14376 3.20348 4.46995 2.92677 4.88649C2.65006 5.30304 2.50167 5.79163 2.5 6.2917V19.02C2.54897 23.2258 3.8893 27.315 6.33947 30.7337C8.78965 34.1525 12.2313 36.7356 16.1983 38.1334L18.0667 38.8234C18.6859 39.0505 19.3404 39.1667 20 39.1667V0.833368Z" fill="#E1EFE3"/>
<path d="M29.1667 15.0001C29.1667 14.7791 29.0789 14.5671 28.9226 14.4108C28.7663 14.2545 28.5543 14.1667 28.3333 14.1667H24.1667V10.0001C24.1667 9.77907 24.0789 9.56711 23.9226 9.41083C23.7663 9.25455 23.5543 9.16675 23.3333 9.16675H16.6667C16.4456 9.16675 16.2337 9.25455 16.0774 9.41083C15.9211 9.56711 15.8333 9.77907 15.8333 10.0001V14.1667H11.6667C11.4456 14.1667 11.2337 14.2545 11.0774 14.4108C10.9211 14.5671 10.8333 14.7791 10.8333 15.0001V21.6667C10.8333 21.8878 10.9211 22.0997 11.0774 22.256C11.2337 22.4123 11.4456 22.5001 11.6667 22.5001H15.8333V26.6667C15.8333 26.8878 15.9211 27.0997 16.0774 27.256C16.2337 27.4123 16.4456 27.5001 16.6667 27.5001H23.3333C23.5543 27.5001 23.7663 27.4123 23.9226 27.256C24.0789 27.0997 24.1667 26.8878 24.1667 26.6667V22.5001H28.3333C28.5543 22.5001 28.7663 22.4123 28.9226 22.256C29.0789 22.0997 29.1667 21.8878 29.1667 21.6667V15.0001Z" fill="#E1EFE3"/>
<path d="M20 9.16675H16.6667C16.4456 9.16675 16.2337 9.25455 16.0774 9.41083C15.9211 9.56711 15.8333 9.77907 15.8333 10.0001V14.1667H11.6667C11.4456 14.1667 11.2337 14.2545 11.0774 14.4108C10.9211 14.5671 10.8333 14.7791 10.8333 15.0001V21.6667C10.8333 21.8878 10.9211 22.0997 11.0774 22.256C11.2337 22.4123 11.4456 22.5001 11.6667 22.5001H15.8333V26.6667C15.8333 26.8878 15.9211 27.0997 16.0774 27.256C16.2337 27.4123 16.4456 27.5001 16.6667 27.5001H20V9.16675Z" fill="white"/>
<path d="M2.5 6.29164V19.02C2.54897 23.2258 3.8893 27.3149 6.33947 30.7337C8.78965 34.1524 12.2313 36.7356 16.1983 38.1333L18.0667 38.8233C19.3148 39.2817 20.6852 39.2817 21.9333 38.8233L23.8017 38.1333C27.7687 36.7356 31.2103 34.1524 33.6605 30.7337C36.1107 27.3149 37.451 23.2258 37.5 19.02V6.29164C37.4983 5.79157 37.3499 5.30298 37.0732 4.88643C36.7965 4.46989 36.4037 4.1437 35.9433 3.94831C30.8944 1.84191 25.4705 0.782186 20 0.833308C14.5295 0.782186 9.1056 1.84191 4.05667 3.94831C3.59634 4.1437 3.20348 4.46989 2.92677 4.88643C2.65006 5.30298 2.50167 5.79157 2.5 6.29164Z" stroke="#389344" stroke-width="1.5" stroke-linecap="round" stroke-linejoin="round"/>
<path d="M29.1667 15.0001C29.1667 14.7791 29.0789 14.5671 28.9226 14.4108C28.7663 14.2545 28.5543 14.1667 28.3333 14.1667H24.1667V10.0001C24.1667 9.77907 24.0789 9.56711 23.9226 9.41083C23.7663 9.25455 23.5543 9.16675 23.3333 9.16675H16.6667C16.4456 9.16675 16.2337 9.25455 16.0774 9.41083C15.9211 9.56711 15.8333 9.77907 15.8333 10.0001V14.1667H11.6667C11.4456 14.1667 11.2337 14.2545 11.0774 14.4108C10.9211 14.5671 10.8333 14.7791 10.8333 15.0001V21.6667C10.8333 21.8878 10.9211 22.0997 11.0774 22.256C11.2337 22.4123 11.4456 22.5001 11.6667 22.5001H15.8333V26.6667C15.8333 26.8878 15.9211 27.0997 16.0774 27.256C16.2337 27.4123 16.4456 27.5001 16.6667 27.5001H23.3333C23.5543 27.5001 23.7663 27.4123 23.9226 27.256C24.0789 27.0997 24.1667 26.8878 24.1667 26.6667V22.5001H28.3333C28.5543 22.5001 28.7663 22.4123 28.9226 22.256C29.0789 22.0997 29.1667 21.8878 29.1667 21.6667V15.0001Z" stroke="#389344" stroke-width="1.5" stroke-linecap="round" stroke-linejoin="round"/>
</svg>
