<svg width="40" height="40" viewBox="0 0 40 40" fill="none" xmlns="http://www.w3.org/2000/svg">
<g clip-path="url(#clip0_1295_3613)">
<path d="M25.8333 7.49992C25.8333 9.26803 26.5357 10.9637 27.786 12.214C29.0362 13.4642 30.7319 14.1666 32.5 14.1666C34.2681 14.1666 35.9638 13.4642 37.214 12.214C38.4643 10.9637 39.1667 9.26803 39.1667 7.49992C39.1667 5.73181 38.4643 4.03612 37.214 2.78587C35.9638 1.53563 34.2681 0.833252 32.5 0.833252C30.7319 0.833252 29.0362 1.53563 27.786 2.78587C26.5357 4.03612 25.8333 5.73181 25.8333 7.49992Z" fill="#C1DEC5"/>
<path d="M32.5 0.833252C31.1752 0.83537 29.881 1.23216 28.7827 1.973C27.6844 2.71383 26.8317 3.7651 26.3334 4.99266C25.8352 6.22022 25.714 7.5684 25.9853 8.86514C26.2566 10.1619 26.9081 11.3484 27.8567 12.2733L37.2733 2.85659C36.6541 2.21635 35.9124 1.70727 35.0924 1.35967C34.2723 1.01206 33.3907 0.833035 32.5 0.833252Z" fill="#E1EFE3"/>
<path d="M39.1667 39.1667H0.833328" stroke="#389344" stroke-width="1.5" stroke-linecap="round" stroke-linejoin="round"/>
<path d="M6.67999 16.66C6.67999 17.426 6.83088 18.1846 7.12403 18.8923C7.41718 19.6 7.84686 20.2431 8.38854 20.7848C8.93021 21.3265 9.57327 21.7561 10.281 22.0493C10.9887 22.3424 11.7473 22.4933 12.5133 22.4933C13.2794 22.4933 14.0379 22.3424 14.7456 22.0493C15.4534 21.7561 16.0964 21.3265 16.6381 20.7848C17.1798 20.2431 17.6095 19.6 17.9026 18.8923C18.1958 18.1846 18.3467 17.426 18.3467 16.66C18.3467 15.894 18.1958 15.1354 17.9026 14.4277C17.6095 13.7199 17.1798 13.0769 16.6381 12.5352C16.0964 11.9935 15.4534 11.5638 14.7456 11.2707C14.0379 10.9775 13.2794 10.8267 12.5133 10.8267C11.7473 10.8267 10.9887 10.9775 10.281 11.2707C9.57327 11.5638 8.93021 11.9935 8.38854 12.5352C7.84686 13.0769 7.41718 13.7199 7.12403 14.4277C6.83088 15.1354 6.67999 15.894 6.67999 16.66Z" fill="#E1EFE3" stroke="#389344" stroke-width="1.5" stroke-linecap="round" stroke-linejoin="round"/>
<path d="M22.5 35.8333V30.8333C22.5 29.5072 21.9732 28.2354 21.0355 27.2977C20.0979 26.36 18.8261 25.8333 17.5 25.8333H15.8333L12.5 31.6666L9.16667 25.8333H7.5C6.17392 25.8333 4.90215 26.36 3.96447 27.2977C3.02678 28.2354 2.5 29.5072 2.5 30.8333V35.8333" fill="#C1DEC5"/>
<path d="M22.5 35.8333V30.8333C22.5 29.5072 21.9732 28.2354 21.0355 27.2977C20.0979 26.36 18.8261 25.8333 17.5 25.8333H15.8333L12.5 31.6666L9.16667 25.8333H7.5C6.17392 25.8333 4.90215 26.36 3.96447 27.2977C3.02678 28.2354 2.5 29.5072 2.5 30.8333V35.8333" stroke="#389344" stroke-width="1.5" stroke-linecap="round" stroke-linejoin="round"/>
<path d="M25.8333 7.49992C25.8333 9.26803 26.5357 10.9637 27.786 12.214C29.0362 13.4642 30.7319 14.1666 32.5 14.1666C34.2681 14.1666 35.9638 13.4642 37.214 12.214C38.4643 10.9637 39.1667 9.26803 39.1667 7.49992C39.1667 5.73181 38.4643 4.03612 37.214 2.78587C35.9638 1.53563 34.2681 0.833252 32.5 0.833252C30.7319 0.833252 29.0362 1.53563 27.786 2.78587C26.5357 4.03612 25.8333 5.73181 25.8333 7.49992Z" stroke="#389344" stroke-width="1.5" stroke-linecap="round" stroke-linejoin="round"/>
<path d="M32.5 10.8333V7.5" stroke="#389344" stroke-width="1.5" stroke-linecap="round" stroke-linejoin="round"/>
<path d="M32.5 4.2334C32.4176 4.2334 32.337 4.25784 32.2685 4.30362C32.2 4.3494 32.1466 4.41448 32.115 4.49061C32.0835 4.56675 32.0753 4.65053 32.0913 4.73135C32.1074 4.81218 32.1471 4.88642 32.2054 4.94469C32.2636 5.00296 32.3379 5.04265 32.4187 5.05873C32.4995 5.0748 32.5833 5.06655 32.6594 5.03501C32.7356 5.00348 32.8007 4.95007 32.8464 4.88155C32.8922 4.81303 32.9167 4.73247 32.9167 4.65007C32.9167 4.53956 32.8728 4.43358 32.7946 4.35544C32.7165 4.2773 32.6105 4.2334 32.5 4.2334Z" stroke="#389344" stroke-width="1.5" stroke-linecap="round" stroke-linejoin="round"/>
<path d="M30 39.1667V38.3333C30 37.4493 30.3512 36.6014 30.9763 35.9763C31.6014 35.3512 32.4493 35 33.3333 35C34.2174 35 35.0652 35.3512 35.6904 35.9763C36.3155 36.6014 36.6667 37.4493 36.6667 38.3333V39.1667H30Z" fill="#E1EFE3" stroke="#389344" stroke-width="1.5" stroke-linecap="round" stroke-linejoin="round"/>
<path d="M33.3333 34.9999V33.3333" stroke="#389344" stroke-width="1.5" stroke-linecap="round" stroke-linejoin="round"/>
</g>
<defs>
<clipPath id="clip0_1295_3613">
<rect width="40" height="40" fill="white"/>
</clipPath>
</defs>
</svg>
