<svg width="20" height="20" viewBox="0 0 20 20" fill="none" xmlns="http://www.w3.org/2000/svg">
<g clip-path="url(#clip0_763_6052)">
<path d="M10 11.202V0.61499C12.924 0.61499 15.294 2.57999 15.294 5.00399C15.294 6.31799 14.598 7.49699 13.495 8.30099L13.497 8.30299L10.001 11.202H10Z" fill="#389344"/>
<path d="M10 11.202V0.61499C7.076 0.61499 4.706 2.57999 4.706 5.00399C4.706 6.31799 5.402 7.49699 6.505 8.30099L6.503 8.30299L9.999 11.202H10Z" fill="#33843D"/>
<path d="M10 11.2019L19.169 16.4959C17.707 19.0279 14.82 20.0979 12.721 18.8859C11.583 18.2289 10.911 17.0369 10.765 15.6789H10.762L9.999 11.2019H10Z" fill="#389344"/>
<path d="M10 11.202L19.169 16.496C20.631 13.964 20.114 10.929 18.014 9.71697C16.876 9.05997 15.507 9.07397 14.259 9.62697V9.62397L9.999 11.202H10Z" fill="#33843D"/>
<path d="M10 11.202L0.830998 16.496C-0.631002 13.964 -0.114002 10.929 1.986 9.71697C3.124 9.05997 4.493 9.07397 5.741 9.62697V9.62397L10.001 11.202H10Z" fill="#389344"/>
<path d="M10 11.2019L0.831001 16.4959C2.293 19.0279 5.18 20.0979 7.279 18.8859C8.417 18.2289 9.089 17.0369 9.235 15.6789H9.238L10.001 11.2019H10Z" fill="#33843D"/>
</g>
<defs>
<clipPath id="clip0_763_6052">
<rect width="20" height="20" fill="white"/>
</clipPath>
</defs>
</svg>
