<svg width="16" height="20" viewBox="0 0 16 20" fill="none" xmlns="http://www.w3.org/2000/svg">
<path fill-rule="evenodd" clip-rule="evenodd" d="M0 2.10526C0 0.942559 0.895431 0 2 0H14C15.1046 0 16 0.942559 16 2.10526V17.8947C16 19.0574 15.1046 20 14 20H2C0.895431 20 0 19.0574 0 17.8947V2.10526ZM2.5 12.6316C2.5 12.3409 2.72386 12.1053 3 12.1053H13C13.2761 12.1053 13.5 12.3409 13.5 12.6316C13.5 12.9223 13.2761 13.1579 13 13.1579H3C2.72386 13.1579 2.5 12.9223 2.5 12.6316ZM3 16.3158C2.72386 16.3158 2.5 16.5514 2.5 16.8421C2.5 17.1328 2.72386 17.3684 3 17.3684H13C13.2761 17.3684 13.5 17.1328 13.5 16.8421C13.5 16.5514 13.2761 16.3158 13 16.3158H3ZM2.5 8.42105C2.5 8.13038 2.72386 7.89474 3 7.89474H13C13.2761 7.89474 13.5 8.13038 13.5 8.42105C13.5 8.71173 13.2761 8.94737 13 8.94737H3C2.72386 8.94737 2.5 8.71173 2.5 8.42105ZM3 3.68421C2.72386 3.68421 2.5 3.91985 2.5 4.21053C2.5 4.5012 2.72386 4.73684 3 4.73684H9C9.27614 4.73684 9.5 4.5012 9.5 4.21053C9.5 3.91985 9.27614 3.68421 9 3.68421H3Z" fill="#DEDEDE"/>
</svg>
