<svg width="20" height="20" viewBox="0 0 20 20" fill="none" xmlns="http://www.w3.org/2000/svg">
<path d="M5.26713 0.0603979L0.267127 2.79032C0.102851 2.88001 0 3.05674 0 3.24931V19.4805C0 19.886 0.428484 20.1347 0.761632 19.9225L5.76163 16.7376C5.90974 16.6433 6 16.4759 6 16.2956V0.519392C6 0.129076 5.60008 -0.12139 5.26713 0.0603979Z" fill="#DEDEDE"/>
<path d="M19.2671 0.0603979L14.2671 2.79032C14.1029 2.88001 14 3.05674 14 3.24931V19.4805C14 19.886 14.4285 20.1347 14.7616 19.9225L19.7616 16.7376C19.9097 16.6433 20 16.4759 20 16.2956V0.519392C20 0.129076 19.6001 -0.12139 19.2671 0.0603979Z" fill="#DEDEDE"/>
<path d="M13 19.4805V3.24931C13 3.05673 12.8972 2.88001 12.7329 2.79032L7.73287 0.0603981C7.39992 -0.12139 7 0.129076 7 0.519392V16.2956C7 16.4759 7.09026 16.6433 7.23837 16.7376L12.2384 19.9225C12.5715 20.1347 13 19.886 13 19.4805Z" fill="#DEDEDE"/>
</svg>
