<svg width="60" height="60" viewBox="0 0 60 60" fill="none" xmlns="http://www.w3.org/2000/svg">
<g clip-path="url(#clip0_1294_3161)">
<path d="M1.25 26.25C1.25 32.8804 3.88392 39.2393 8.57233 43.9277C13.2607 48.6161 19.6196 51.25 26.25 51.25C32.8804 51.25 39.2393 48.6161 43.9277 43.9277C48.6161 39.2393 51.25 32.8804 51.25 26.25C51.25 19.6196 48.6161 13.2607 43.9277 8.57233C39.2393 3.88392 32.8804 1.25 26.25 1.25C19.6196 1.25 13.2607 3.88392 8.57233 8.57233C3.88392 13.2607 1.25 19.6196 1.25 26.25Z" fill="#C1DEC5"/>
<path d="M8.57247 43.9275C3.91799 39.232 1.31298 32.8841 1.32745 26.2726C1.34193 19.6612 3.97473 13.3247 8.64972 8.64972C13.3247 3.97473 19.6612 1.34193 26.2726 1.32745C32.8841 1.31298 39.232 3.91799 43.9275 8.57247L8.57247 43.9275Z" fill="#E1EFE3"/>
<path d="M1.25 26.25C1.25 32.8804 3.88392 39.2393 8.57233 43.9277C13.2607 48.6161 19.6196 51.25 26.25 51.25C32.8804 51.25 39.2393 48.6161 43.9277 43.9277C48.6161 39.2393 51.25 32.8804 51.25 26.25C51.25 19.6196 48.6161 13.2607 43.9277 8.57233C39.2393 3.88392 32.8804 1.25 26.25 1.25C19.6196 1.25 13.2607 3.88392 8.57233 8.57233C3.88392 13.2607 1.25 19.6196 1.25 26.25Z" stroke="#389344" stroke-width="2" stroke-linecap="round" stroke-linejoin="round"/>
<path d="M17.5 17.5L35 35" stroke="#389344" stroke-width="2" stroke-linecap="round" stroke-linejoin="round"/>
<path d="M35 17.5L17.5 35" stroke="#389344" stroke-width="2" stroke-linecap="round" stroke-linejoin="round"/>
<path d="M58.75 58.75L43.9275 43.9275" stroke="#389344" stroke-width="2" stroke-linecap="round" stroke-linejoin="round"/>
</g>
<defs>
<clipPath id="clip0_1294_3161">
<rect width="60" height="60" fill="white"/>
</clipPath>
</defs>
</svg>
