<svg xmlns="http://www.w3.org/2000/svg" width="20" height="20" viewBox="0 0 20 20" fill="none">
  <path d="M0 6.84211C0 6.55143 0.23564 6.31579 0.526316 6.31579H3.68421C3.97489 6.31579 4.21053 6.55143 4.21053 6.84211V19.4737C4.21053 19.7644 3.97489 20 3.68421 20H0.526316C0.23564 20 0 19.7644 0 19.4737V6.84211Z" fill="currentColor"/>
  <path d="M5.26316 0.526316C5.26316 0.23564 5.4988 0 5.78947 0H8.94737C9.23804 0 9.47368 0.23564 9.47368 0.526316V19.4737C9.47368 19.7644 9.23804 20 8.94737 20H5.78947C5.4988 20 5.26316 19.7644 5.26316 19.4737V0.526316Z" fill="currentColor"/>
  <path d="M10.5263 13.1579C10.5263 12.8672 10.762 12.6316 11.0526 12.6316H14.2105C14.5012 12.6316 14.7368 12.8672 14.7368 13.1579V19.4737C14.7368 19.7644 14.5012 20 14.2105 20H11.0526C10.762 20 10.5263 19.7644 10.5263 19.4737V13.1579Z" fill="currentColor"/>
  <path d="M15.7895 10C15.7895 9.70932 16.0251 9.47368 16.3158 9.47368H19.4737C19.7644 9.47368 20 9.70932 20 10V19.4737C20 19.7644 19.7644 20 19.4737 20H16.3158C16.0251 20 15.7895 19.7644 15.7895 19.4737V10Z" fill="currentColor"/>
</svg>
